<svg version="1.2" xmlns="http://www.w3.org/2000/svg" viewBox="0 0 580 200" width="580" height="200"><style>.a{fill:#004077}.b{fill:#00a4e0}</style><path fill-rule="evenodd" class="a" d="m237 40.5h21.1v119h-21.1zm181.2 79.7v7.2c0 32.2-29.7 32.2-47.4 32.2h-41.6c-13.2 0-44.1 0-44.1-31v-3l20.2-0.4v3.1c0 6.9 1.6 13 21.3 13h46.5c21.4 0 25-4.4 25-17.4 0-11.1-2.7-14.3-21-14.3h-28.4c-43 0-63.7-1.5-63.7-35.1 0-28.4 17.9-34 48.8-34h32.3c33.4 0 47.2 7.6 49.2 27l0.3 3.3-20.4 0.3-0.4-2.6c-1.3-7-4.9-9.6-37.8-9.6h-15.9c-29.1 0-36 1.5-36 16.6 0 10.1 1 14.5 24.5 14.5h44.2c20.7 0 44.4 3.4 44.4 30.2zm151.8 0v7.2c0 32.2-29.7 32.2-47.5 32.2h-41.5c-13.2 0-44.1 0-44.1-31v-3l20.1-0.4v3.1c0 6.9 1.7 13 21.4 13h46.4c21.4 0 25-4.4 25-17.4 0-11.1-2.7-14.3-21-14.3h-28.4c-43 0-63.7-1.5-63.7-35.1 0-28.4 17.9-34 48.9-34h32.2c33.4 0 47.2 7.6 49.2 27l0.3 3.3-20.3 0.3-0.5-2.6c-1.2-7-4.8-9.6-37.8-9.6h-15.8c-29.2 0-36.1 1.5-36.1 16.6 0 10.1 1.1 14.5 24.5 14.5h44.2c20.7 0 44.5 3.4 44.5 30.2zm-422.4-86.7h-69.2l-3.3-4.1h75.8zm60.5 66.6l-3.4 4v0.1l-11 13.5h-75.6l-11.1 13.6-3.4 4.1h76l-43 53.1h-101.3 0.1l3.3-4.1 8.9-11.1 1.4-1.8 3.9-4.8 3.3 4.1h69.1l14.3-17.7h-75.7l3.4-4.1 36.2-44.8 3.3-4.1z"/><path fill-rule="evenodd" class="b" d="m176.4 131.2l3.1 4.1h-75.9l3.3-4.1zm31.7-31.2h-101.3l-3.2-4-7.8-9.6-3.2-4h75.6l-14.3-17.8h-31.4l-37.8-0.1-3.2 4.1-3.4-4.1-39.4-48.8-3.3-4.1h101.3l14.3 17.7h-75.8l3.3 4.1 10.9 13.6h75.9l39.5 48.9 0.1 0.1zm-76.2 70.7v0.1h-75.6l-3.4-4.2h75.7z"/><path fill-rule="evenodd" class="a" d="m160.4 64.7l-75.8-0.2-3.2 4.1 75.7 0.2zm-150.4 88.3h25.3l42.7-53h-25.2z"/><path class="b" d="m78 100h-25.2l-14.2-17.6 25.2-0.1z"/></svg>