<svg width="700" height="450" xmlns="http://www.w3.org/2000/svg">
  <path fill="#004077" d="M297.03 165.458h21.088v119.084h-21.087zm136.794 49.478H389.55c-23.415 0-24.42-4.428-24.42-14.515 0-15.108 6.847-16.614 36.014-16.614h15.883c32.91 0 36.515 2.647 37.748 9.63l.456 2.557 20.357-.274-.32-3.332c-1.962-19.399-15.746-26.93-49.203-26.93H393.84c-30.947 0-48.839 5.569-48.839 33.913 0 33.64 20.677 35.1 63.673 35.1h28.39c18.303 0 21.042 3.24 21.042 14.332 0 13.054-3.606 17.39-25.013 17.39h-46.465c-19.718 0-21.361-6.116-21.361-12.963v-3.149l-20.175.457v3.012c0 30.992 30.901 30.992 44.138 30.992h41.535c17.755 0 47.47 0 47.47-32.224v-7.166c0-26.793-23.735-30.216-44.412-30.216m151.72 0h-44.275c-23.415 0-24.42-4.428-24.42-14.515 0-15.108 6.847-16.614 36.014-16.614h15.883c32.91 0 36.515 2.647 37.748 9.63l.456 2.557 20.357-.274-.32-3.332c-1.962-19.399-15.746-26.93-49.203-26.93H545.56c-30.947 0-48.839 5.569-48.839 33.913 0 33.64 20.677 35.1 63.673 35.1h28.39c18.303 0 21.042 3.24 21.042 14.332 0 13.054-3.606 17.39-25.013 17.39h-46.42c-19.717 0-21.36-6.116-21.36-12.963v-3.149l-20.175.457v3.012c0 30.992 30.9 30.992 44.137 30.992h41.536c17.755 0 47.469 0 47.469-32.224v-7.166c-.046-26.793-23.78-30.216-44.457-30.216M207.57 158.383h-69.15l-3.287-4.108h75.768zm-40.806 66.594l-3.286 4.108-36.241 44.822-3.332 4.108h75.631l-14.286 17.71H116.19l-3.332-4.108-3.88 4.838-1.46 1.78-8.9 11.091-3.287 4.063-.046.045h101.329l42.905-53.129h-75.95l3.377-4.108 11.091-13.556h75.631l11.046-13.556v-.046l3.332-4.062z" />
  <path fill="#00a4e0" d="M236.37 256.197l3.15 4.108h-75.95l3.377-4.108zm28.482-35.19h-.046l-.09-.138-39.482-48.884h-75.951l-10.91-13.602-3.24-4.108h75.768l-14.286-17.71H95.286l3.287 4.109 39.481 48.838 3.332 4.108 3.241-4.108 37.747.091 31.403.046 14.332 17.71h-75.631l3.286 4.062 7.76 9.585 3.24 3.971h101.283zm-76.316 70.564l-75.677.046 3.332 4.108h75.586l.045-.092z" />
  <path fill="#004077" d="M220.395 189.65l-75.768-.138-3.24 4.108 75.722.137zm-107.581 35.327h25.195l-42.677 53.038H70z" />
  <path fill="#00a4e0" d="M138.009 224.977h-25.195L98.618 207.36l25.15-.092z" />
</svg>
